<svg xmlns="http://www.w3.org/2000/svg" viewBox="0 0 16 16" shape-rendering="crispEdges">
  <rect width="16" height="16" fill="#000000"/>
  <!-- accretion ring -->
  <g fill="#ff6b00">
    <rect x="6" y="2" width="4" height="1"/>
    <rect x="4" y="3" width="2" height="1"/><rect x="10" y="3" width="2" height="1"/>
    <rect x="3" y="4" width="2" height="1"/><rect x="11" y="4" width="2" height="1"/>
    <rect x="2" y="5" width="2" height="1"/><rect x="12" y="5" width="2" height="1"/>
    <rect x="1" y="6" width="2" height="1"/><rect x="13" y="6" width="2" height="1"/>
    <rect x="1" y="7" width="1" height="2"/><rect x="14" y="7" width="1" height="2"/>
    <rect x="1" y="9" width="2" height="1"/><rect x="13" y="9" width="2" height="1"/>
    <rect x="2" y="10" width="2" height="1"/><rect x="12" y="10" width="2" height="1"/>
    <rect x="3" y="11" width="2" height="1"/><rect x="11" y="11" width="2" height="1"/>
    <rect x="4" y="12" width="2" height="1"/><rect x="10" y="12" width="2" height="1"/>
    <rect x="6" y="13" width="4" height="1"/>
  </g>
  <!-- photon ring glint, top-left -->
  <g fill="#ffffff">
    <rect x="5" y="3" width="1" height="1"/>
    <rect x="4" y="4" width="1" height="1"/>
  </g>
</svg>
